<svg xmlns="http://www.w3.org/2000/svg" id="_360-WEB" width="106.706" height="143.499" data-name="360-WEB" viewBox="0 0 106.706 143.499"><g id="Group_1" fill="#231f20" data-name="Group 1" transform="translate(0 33.286)"><path id="Path_1" d="M190.191 119.363a12.3 12.3 0 1 1 12.3-12.3 12.3 12.3 0 0 1-12.3 12.3m0-32.993a20.693 20.693 0 1 0 20.691 20.7 20.693 20.693 0 0 0-20.691-20.7" data-name="Path 1" transform="translate(-104.177 -86.37)"/><path id="Path_2" d="M17.015 96.033H1.148V87.87h27.879v5.577l-9.542 9.827c5.746.574 9.885 5.345 9.885 11.554 0 8.1-6.209 13.855-14.83 13.855-7.988 0-14.024-5.172-14.54-12.475h8.506c.459 2.243 2.528 4.2 6.035 4.2a5.755 5.755 0 0 0 6.093-5.8c0-4.829-5.519-6.494-11.323-4.829v-5.461l7.7-8.278Z" data-name="Path 2" transform="translate(0 -87.292)"/><path id="Path_3" d="M105.73 114.533a6.051 6.051 0 0 0-6.209-6.093 5.906 5.906 0 0 0-6.035 6.093 5.975 5.975 0 0 0 6.093 6.035 6.06 6.06 0 0 0 6.151-6.035m8.278.058a14.433 14.433 0 0 1-28.858 0 19.658 19.658 0 0 1 3.218-9.773L98.885 87.86h9.715l-8.5 13.392a6.191 6.191 0 0 1 1.033-.058c7.357 0 12.876 5.692 12.876 13.392" data-name="Path 3" transform="translate(-52.334 -87.286)"/></g><path id="Path_4" fill="#231f20" d="M170.98 207.7v8.506h23.451L170.98 232.7v7.126h40.238v-8.505h-23.454l23.455-16.383V207.7Z" data-name="Path 4" transform="translate(-105.086 -127.655)"/><path id="Path_5" fill="#231f20" d="M170.98 308.36v24.661h8.163v-16.152h8.506v14.371h8.163v-14.371h7.245v16.152h8.163V308.36Z" data-name="Path 5" transform="translate(-105.086 -189.522)"/><g id="Group_2" fill="#5b57a6" data-name="Group 2" transform="translate(16.66)"><path id="Path_6" d="M50.745 28.717a4.411 4.411 0 0 0 4.755-4.57v-.47l-5.153.8c-1.634.254-2.54.979-2.54 2.143s.906 2.1 2.937 2.1m1.45-15.53c4.717 0 7.8 2.648 7.8 7.149V31.7h-4.428v-2.32H55.2c-.582 1.052-2 2.829-5.515 2.829-3.7 0-6.459-1.923-6.459-5.334s2.829-4.971 6.6-5.55l5.661-.871v-.435c0-1.742-1.017-3.191-3.484-3.191a4.009 4.009 0 0 0-4.203 3.48l-4.39-1.488a9.024 9.024 0 0 1 8.78-5.62" data-name="Path 6" transform="translate(-43.23 -8.107)"/><path id="Path_7" d="M101.41 13.18a9.771 9.771 0 0 1 9.072 5.407l-4.062 1.634a4.848 4.848 0 0 0-4.933-3.484c-1.811 0-2.941.617-2.941 1.78s.944 1.63 2.9 2.031l1.815.362c3.7.725 7 1.85 7 5.55S107 32.2 102.574 32.2s-7.947-2.031-9.434-5.916l4.135-1.453c.832 3.014 2.975 3.811 5.226 3.811s3.337-.8 3.337-1.962-1.017-1.522-3.122-1.958l-1.815-.362c-3.773-.763-6.787-2.285-6.787-5.7s3.083-5.48 7.292-5.48" data-name="Path 7" transform="translate(-73.905 -8.101)"/><path id="Path_8" d="M149.7 13.18a9.771 9.771 0 0 1 9.072 5.407l-4.062 1.634a4.848 4.848 0 0 0-4.933-3.484c-1.811 0-2.941.617-2.941 1.78s.944 1.63 2.9 2.031l1.815.362c3.7.725 7 1.85 7 5.55s-3.264 5.735-7.692 5.735-7.947-2.031-9.434-5.916l4.135-1.453c.832 3.014 2.975 3.811 5.226 3.811s3.337-.8 3.337-1.962-1.017-1.522-3.122-1.958l-1.815-.362c-3.773-.763-6.787-2.285-6.787-5.7s3.083-5.48 7.292-5.48" data-name="Path 8" transform="translate(-103.585 -8.101)"/><path id="Path_9" d="M204.068 20.907a3.925 3.925 0 0 0-4.135-3.808 4 4 0 0 0-4.282 3.808Zm-4.1-7.727c5.226 0 8.744 3.665 8.744 9.215V24.1h-13.1a4.481 4.481 0 0 0 4.571 4.174 4.926 4.926 0 0 0 4.571-2.756l3.665 2.247a9.427 9.427 0 0 1-8.236 4.428c-5.515 0-9.253-4.062-9.253-9.65s3.738-9.361 9.033-9.361" data-name="Path 9" transform="translate(-134.008 -8.101)"/><path id="Path_10" d="M239.05 5.588h4.5V0h4.571v5.588h4.933v3.7h-4.933V18.8c0 .725.362 1.087 1.017 1.087h3.484v3.7h-5.082a3.791 3.791 0 0 1-3.993-4.062V9.288h-4.5v-3.7Z" data-name="Path 10" transform="translate(-163.583)"/></g></svg>