<svg xmlns="http://www.w3.org/2000/svg" width="14.218" height="22.633" viewBox="0 0 14.218 22.633"><g id="Group_215" fill="#87c05a" data-name="Group 215"><path id="Path_159" d="M954.668 70.49a1.192 1.192 0 0 1 1.671-.538 1.317 1.317 0 0 1 .517 1.789l-5.127 9.383 5.2 9.5a1.18 1.18 0 0 1-.509 1.654 1.315 1.315 0 0 1-1.767-.529l-5.817-10.622Z" data-name="Path 159" transform="translate(-942.866 -69.793)"/><path id="Path_160" d="M954.668 70.49a1.192 1.192 0 0 1 1.671-.538 1.317 1.317 0 0 1 .517 1.789l-5.127 9.383 5.2 9.5a1.18 1.18 0 0 1-.509 1.654 1.315 1.315 0 0 1-1.767-.529l-5.817-10.622Z" data-name="Path 160" transform="translate(-948.837 -69.793)"/></g></svg>