<svg xmlns="http://www.w3.org/2000/svg" width="14.218" height="22.633" viewBox="0 0 14.218 22.633"><g id="Group_215" fill="#87c05a" data-name="Group 215" transform="translate(-1516.47 -904.211)"><path id="Path_159" d="M951.253 70.49a1.192 1.192 0 0 0-1.671-.538 1.317 1.317 0 0 0-.517 1.789l5.127 9.383-5.2 9.5a1.18 1.18 0 0 0 .509 1.654 1.315 1.315 0 0 0 1.767-.529l5.817-10.622Z" data-name="Path 159" transform="translate(567.633 834.418)"/><path id="Path_160" d="M951.253 70.49a1.192 1.192 0 0 0-1.671-.538 1.317 1.317 0 0 0-.517 1.789l5.127 9.383-5.2 9.5a1.18 1.18 0 0 0 .509 1.654 1.315 1.315 0 0 0 1.767-.529l5.817-10.622Z" data-name="Path 160" transform="translate(573.604 834.418)"/></g></svg>