<svg xmlns="http://www.w3.org/2000/svg" id="Group_87" width="12.864" height="24.797" data-name="Group 87" viewBox="0 0 12.864 24.797"><defs><clipPath id="clip-path"><path id="Rectangle_56" fill="#fff" d="M0 0h12.864v24.797H0z" data-name="Rectangle 56"/></clipPath></defs><g id="Group_86" clip-path="url(#clip-path)" data-name="Group 86"><path id="Path_28" fill="#fff" d="M10.743 0c.417.033.834.064 1.25.1.288.024.576.051.871.077V4.12h-.387c-.815.012-1.632 0-2.445.044a1.555 1.555 0 0 0-1.65 1.631c-.048 1.079-.011 2.162-.011 3.288h4.346l-.569 4.412H8.361V24.8H3.8V13.5H0V9.091h3.8V8.78c0-1.155-.024-2.311.023-3.464a5.523 5.523 0 0 1 1.448-3.7A5.04 5.04 0 0 1 8 .15c.282-.058.568-.1.852-.15Z" data-name="Path 28"/></g></svg>