<svg xmlns="http://www.w3.org/2000/svg" width="1920" height="377" viewBox="0 0 1920 377"><defs><clipPath id="clip-path"><path id="Rectangle_96" fill="#430f2c" d="M0 0h1920v377H0z" data-name="Rectangle 96" transform="translate(641 8675)"/></clipPath></defs><g id="Mask_Group_8" fill="#430f2c" clip-path="url(#clip-path)" data-name="Mask Group 8" opacity=".1" style="mix-blend-mode:multiply;isolation:isolate" transform="translate(-641 -8675)"><path id="Path_157" d="M1006.939 86.556c-8.449-15.317-24.881-21.381-40.2-12.932a31.674 31.674 0 0 0-12.439 43.032l123.32 225.706-125.1 228.489c-7.772 15.283-3.03 32.02 12.253 39.792s34.743 2.547 42.514-12.734l139.908-255.492Z" data-name="Path 157" transform="translate(543.536 8548.944)"/><path id="Path_158" d="M1006.939 86.556c-8.449-15.317-24.881-21.381-40.2-12.932a31.674 31.674 0 0 0-12.439 43.032l123.32 225.706-125.1 228.489c-7.772 15.283-3.03 32.02 12.253 39.792s34.743 2.547 42.514-12.734l139.908-255.492Z" data-name="Path 158" transform="translate(669.789 8548.944)"/></g></svg>