<svg xmlns="http://www.w3.org/2000/svg" id="Group_85" width="24.798" height="24.797" data-name="Group 85" viewBox="0 0 24.798 24.797"><defs><clipPath id="clip-path"><path id="Rectangle_55" fill="#fff" d="M0 0h24.798v24.797H0z" data-name="Rectangle 55"/></clipPath></defs><g id="Group_84" fill="#fff" clip-path="url(#clip-path)" data-name="Group 84"><path id="Path_25" d="M18.553 24.8H6.257c-.079-.014-.156-.033-.236-.041a5.906 5.906 0 0 1-1.933-.5 6.557 6.557 0 0 1-4.064-6.233c-.045-3.752-.013-7.5-.01-11.256a6.415 6.415 0 0 1 .854-3.31A6.593 6.593 0 0 1 6.85.011c3.7-.02 7.406-.009 11.109 0a6.493 6.493 0 0 1 1.394.128 6.6 6.6 0 0 1 5.241 4.976c.1.369.138.757.2 1.137v12.3c-.04.261-.064.526-.123.783a6.627 6.627 0 0 1-4.984 5.258c-.369.1-.758.138-1.138.2M12.416 1.459c-1.855 0-3.71-.009-5.566.006a5.715 5.715 0 0 0-1.294.135 5.221 5.221 0 0 0-4.09 5.22q-.006 5.579 0 11.158a5.5 5.5 0 0 0 .118 1.2 5.239 5.239 0 0 0 5.216 4.16q5.6.008 11.2 0a5.393 5.393 0 0 0 1.176-.118 5.231 5.231 0 0 0 4.157-5.169c.012-3.768 0-7.536 0-11.3a4.914 4.914 0 0 0-.469-2.18 5.156 5.156 0 0 0-4.87-3.1c-1.863-.027-3.727-.006-5.59-.006" data-name="Path 25"/><path id="Path_26" d="M15.967 9.164a6.778 6.778 0 1 1-6.794 6.759 6.8 6.8 0 0 1 6.794-6.759m5.305 6.778a5.324 5.324 0 1 0-5.33 5.324 5.343 5.343 0 0 0 5.33-5.324" data-name="Path 26" transform="translate(-3.543 -3.54)"/><path id="Path_27" d="M30.256 9.243a2 2 0 1 1 2.009-1.995 2.018 2.018 0 0 1-2.009 1.995m0-2.546a.545.545 0 1 0 .552.53.56.56 0 0 0-.552-.53" data-name="Path 27" transform="translate(-10.917 -2.023)"/></g></svg>