<svg xmlns="http://www.w3.org/2000/svg" width="202" height="96" viewBox="0 0 202 96"><g id="Kalaari_Logo-1" fill-rule="evenodd" data-name="Kalaari Logo-1" transform="translate(-61.133 -33.483)"><path id="Path_1328" fill="#2a59a3" d="M61.2 387.649c1.09 1.321 3.673.059 3.239-1.711-1-1.4-3.77-.057-3.239 1.711Z" data-name="Path 1328" transform="translate(0 -278.05)"/><path id="Path_1329" fill="#2a59a3" d="M100.2 83.243c-.946-.227-1.48-1.179-2.153-1.916a6.109 6.109 0 0 1 2.805-1.444c1.512-.5 3.36-1.343 4.317-.806-.815 1.857-3.193 2.839-4.969 4.166Zm100.4 44.534c-69.037-41.063-81.572-45.547-81.572-45.547 1.372-.9 2.744-1.694 3.87-2.4 6.514-4.128 12.173-8.5 18.359-12.545 1.253-.821 2.236-1.989 3.389-2.669 1.753-1.033 3.891-1.715 3.228-3.685-.3-.9-1.567-1.268-2.269-1.885-.836-.734-1.418-1.733-2.134-2.321-.771-.638-2.689-1.752-3.669-1.626a22.767 22.767 0 0 0-2.284.9c-6.8 2.155-13.511 5.225-19.752 6.7-2.536-.346-1.725-2.367-1.594-5.125.072-1.44.252-5.3.269-5.639.1-1.528 2.187-9.043 1.579-10.52a68.474 68.474 0 0 0-6.51-7.4 3.821 3.821 0 0 0-3.408-.241 14.064 14.064 0 0 0-1.658 3.112c-1.672 4.08-3.273 16.694-4.943 20.807-.618 1.519-1.749 3.607-1.789 5.007-.072 2.665 1.8 4.785 3.157 7.334-4.171 1.349-7.185 2.627-11.115 3.238-1.975.306-1.4 1.708-4.033 1.666-1.588-.029-3.04-.583-4.577-.577-4.128.015-3.781.111-6.783 2.2-1.62 1.127-1.175 7.7 3.578 7.884 5.881.231 6.808-1.119 9.038-1.649 1.033.4 4.226 1.9 4.478 3.523.178 1.175-2.521 3.563-3.059 4.3-1.192 1.645-1.859 3.263-2.862 4.514a65.54 65.54 0 0 1-8.506 8.338c-2.147 1.326-3.408 3.085-2.68 3.135a16.825 16.825 0 0 0 2.994-1.656c1.742-1.056 3.436-2.7 5.771-3.849a74.173 74.173 0 0 1 7.412-2.986c1.26-.462 3.745-2.418 5.456-2.449 1.965-.04 2.636 3.517 3.243 6.254 1.425 6.382 1.26 15.015 1.738 20.715a15.016 15.016 0 0 0 .832 4.808c1.067 2.254 4.844 2.865 6.485.705a5.981 5.981 0 0 0 .436-2.241c.83-5.534 2-10.275 1.99-16.064a91.908 91.908 0 0 0 1.723-12.78c.309.172 1.454.73 5.638 2.5.485.208 5.689 1.836 6.2 2.05 1.8.758 2.883 1.679 4.95 2.537 2.746 1.137 5.7 2.352 8.758 3.586 1.622.659 2.7.287 5.369 1.62a162.829 162.829 0 0 0 33.4 12.151c1.829.407 5.373.325 7.107 1.039 1.226.5 3.209 2.365 4.4 2.953 2.371 1.177 12.63 3.635 10.357 2.281Z" data-name="Path 1329" transform="translate(-11.335)"/><path id="Path_1330" fill="#373435" d="M765.182 378.505c0-3.656 1.96-5.885 4.983-5.885a6.107 6.107 0 0 1 2.9.593l-.385.959a5.987 5.987 0 0 0-2.593-.567c-2.31 0-3.739 1.857-3.739 4.821 0 3.267 1.1 4.78 4.452 4.78a10.1 10.1 0 0 0 2.081-.29l.207.959a9.914 9.914 0 0 1-2.456.366c-3.756 0-5.451-1.713-5.451-5.735Z" data-name="Path 1330" transform="translate(-555.575 -268.186)"/><path id="Path_1331" fill="#373435" d="M814.836 381.891v-3.207l-2.943.123c-1.96.083-2.941 1.022-2.941 2.248 0 1.713.836 2.289 2.225 2.289a7.5 7.5 0 0 0 3.656-1.45Zm-6.986-.694c0-2.716 2.432-3.288 4.145-3.349l2.841-.059v-1.7c0-1.96-.963-2.346-3.085-2.346a10.461 10.461 0 0 0-2.612.506l-.245-.938a8.742 8.742 0 0 1 3.309-.593c2.2 0 3.739.758 3.739 2.86v6.533a1.1 1.1 0 0 0 1.058 1.23l-.106.917h-.161a1.7 1.7 0 0 1-1.84-1.471 6.031 6.031 0 0 1-4.065 1.514 2.76 2.76 0 0 1-2.983-3.106Z" data-name="Path 1331" transform="translate(-589.25 -268.265)"/><path id="Path_1332" fill="#373435" d="M865.588 378.851c0-2.447-.487-5.022-3.43-5.022a6.309 6.309 0 0 0-3.046 1.264v8.089a12.959 12.959 0 0 0 2.572.267c2.617 0 3.9-2 3.9-4.6Zm-7.6-5.78h1.12v.94a6 6 0 0 1 3.205-1.181c2.843 0 4.433 2.185 4.433 5.536 0 4.655-2.449 6.086-5.125 6.086a14.808 14.808 0 0 1-2.515-.205v4.473h-1.12v-15.646Z" data-name="Path 1332" transform="translate(-628.914 -268.352)"/><path id="Path_1333" fill="#373435" d="M908.93 373.97h1.165v11.153h-1.165V373.97Z" data-name="Path 1333" transform="translate(-669.07 -269.25)"/><path id="Path_1334" fill="#373435" d="M927.54 370.588V359.34h1.086v3.1h3.514v1.06h-3.5v7.073c0 1.857.491 2.2 2.367 2.2a5.412 5.412 0 0 0 1.575-.326l.29 1a6.112 6.112 0 0 1-1.8.366c-2.043 0-3.533-.1-3.533-3.229Z" data-name="Path 1334" transform="translate(-683.74 -257.717)"/><path id="Path_1335" fill="#373435" d="M964.508 381.891v-3.207l-2.941.123c-1.96.083-2.943 1.022-2.943 2.248 0 1.713.836 2.289 2.227 2.289a7.523 7.523 0 0 0 3.654-1.45Zm-6.986-.694c0-2.716 2.432-3.288 4.147-3.349l2.839-.059v-1.7c0-1.96-.961-2.346-3.085-2.346a10.523 10.523 0 0 0-2.617.506l-.241-.938a8.738 8.738 0 0 1 3.307-.593c2.206 0 3.734.758 3.734 2.86v6.533a1.1 1.1 0 0 0 1.063 1.228l-.1.917h-.163a1.7 1.7 0 0 1-1.836-1.471 6.06 6.06 0 0 1-4.07 1.515 2.76 2.76 0 0 1-2.983-3.106Z" data-name="Path 1335" transform="translate(-707.373 -268.265)"/><path id="Path_1336" fill="#373435" d="M1008.86 359.34h1.128v14.25h-1.128v-14.25Z" data-name="Path 1336" transform="translate(-747.844 -257.717)"/><path id="Path_1337" fill="#373435" d="m464.293 224.01-6.722-7.816 9.855-10.583h5.238l-9.408 10.34 3.988 5.049a12.762 12.762 0 0 0 6.048 4.025l-.762 3.18c-2.329-.125-5.1-.529-8.237-4.2Zm-11.513-23.443 4.66-1.437v28.705h-4.66v-27.268Z" data-name="Path 1337" transform="translate(-309.077 -131.016)"/><path id="Path_1338" fill="#373435" d="M568.285 244.979v-5.127l-5.238.2c-3.356.08-5.282 1.461-5.282 3.5 0 2.523 1.611 3.379 3.933 3.379 2.6 0 5.65-1.588 6.586-1.956Zm-15.092-1.061c0-5.5 5.466-6.677 9.721-6.713l5.373-.085v-2.48c0-3.093-1.789-3.745-5.731-3.745a30.6 30.6 0 0 0-6.451 1.018l-.942-3.216a24.491 24.491 0 0 1 8.419-1.467c6.044 0 9.271 1.711 9.271 6.273v11.642c0 1.387 1.078 1.67 2.24 1.753l-.22 3.294a7.467 7.467 0 0 1-.991.042c-2.284 0-4.833-.732-5.24-2.684a13.64 13.64 0 0 1-8.06 2.767c-4.66 0-7.393-2.2-7.393-6.393Z" data-name="Path 1338" transform="translate(-388.321 -153.2)"/><path id="Path_1339" fill="#373435" d="M668.8 208.085c-3.485 0-6.737-1.757-6.737-7.3v-26.043l4.588-1.442v27.49c0 3.1 1.5 3.584 3.085 3.584a7.36 7.36 0 0 0 1.454-.127l.841 3.472a13.929 13.929 0 0 1-3.231.366Z" data-name="Path 1339" transform="translate(-474.206 -110.621)"/><path id="Path_1340" fill="#373435" d="M724.2 244.979v-5.127l-5.238.2c-3.36.08-5.288 1.461-5.288 3.5 0 2.523 1.615 3.379 3.942 3.379 2.6 0 5.644-1.588 6.586-1.956Zm-15.093-1.061c0-5.5 5.464-6.677 9.713-6.713l5.379-.085v-2.48c0-3.093-1.793-3.745-5.731-3.745a30.6 30.6 0 0 0-6.453 1.018l-.942-3.216a24.5 24.5 0 0 1 8.422-1.467c6.044 0 9.271 1.711 9.271 6.273v11.642c0 1.387 1.075 1.67 2.24 1.753l-.227 3.294a7.339 7.339 0 0 1-.984.042c-2.282 0-4.833-.732-5.238-2.684a13.658 13.658 0 0 1-8.06 2.767c-4.66 0-7.393-2.2-7.393-6.393Z" data-name="Path 1340" transform="translate(-511.37 -153.2)"/><path id="Path_1341" fill="#373435" d="M831.513 244.979v-5.127l-5.24.2c-3.36.08-5.284 1.461-5.284 3.5 0 2.523 1.611 3.379 3.942 3.379 2.593 0 5.642-1.588 6.582-1.956Zm-15.092-1.061c0-5.5 5.466-6.677 9.719-6.713l5.373-.085v-2.48c0-3.093-1.791-3.745-5.731-3.745a30.644 30.644 0 0 0-6.451 1.018l-.942-3.216a24.472 24.472 0 0 1 8.42-1.467c6.044 0 9.271 1.711 9.271 6.273v11.642c0 1.387 1.073 1.67 2.236 1.753l-.22 3.294a7.37 7.37 0 0 1-.987.042c-2.284 0-4.833-.732-5.238-2.684a13.659 13.659 0 0 1-8.06 2.767c-4.66 0-7.393-2.2-7.391-6.393Z" data-name="Path 1341" transform="translate(-596.145 -153.2)"/><path id="Path_1342" fill="#373435" d="M995.17 229.73h4.706v22.227h-4.706V229.73Z" data-name="Path 1342" transform="translate(-737.052 -155.172)"/><path id="Path_1343" fill="#373435" d="M941.984 229.478a15.437 15.437 0 0 0-.87-.028 8.546 8.546 0 0 0-6.808 3.463v-3.4h-4.656v22.227h4.656v-15.53a7.967 7.967 0 0 1 6.089-3.1c.658 0 1.15.019 1.59.059v-3.7Z" data-name="Path 1343" transform="translate(-685.403 -154.951)"/><path id="Path_1344" fill="#373435" d="M999.026 195.183a2.663 2.663 0 1 1-2.661-2.663 2.664 2.664 0 0 1 2.661 2.663Z" data-name="Path 1344" transform="translate(-735.894 -125.679)"/></g></svg>