<svg xmlns="http://www.w3.org/2000/svg" id="Group_93" width="28.08" height="28.075" data-name="Group 93" viewBox="0 0 28.08 28.075"><defs><clipPath id="clip-path"><path id="Rectangle_60" fill="#fff" d="M0 0h28.08v28.075H0z" data-name="Rectangle 60"/></clipPath></defs><g id="Group_92" fill="#fff" clip-path="url(#clip-path)" data-name="Group 92"><path id="Path_31" d="M64.247 71.322h-5.8V52.6H64v2.509a17.347 17.347 0 0 1 1.158-1.338 5.987 5.987 0 0 1 3.665-1.6 9.049 9.049 0 0 1 3.59.348 5.34 5.34 0 0 1 3.613 3.844 13.634 13.634 0 0 1 .523 3.857c.025 3.61.016 7.22.019 10.831 0 .066-.012.132-.02.215h-5.8v-.4c0-3.1.007-6.192-.013-9.288a11.275 11.275 0 0 0-.179-1.94c-.354-1.939-1.61-2.594-3.4-2.377a2.978 2.978 0 0 0-2.764 2.913 14.387 14.387 0 0 0-.136 1.945c-.014 2.925-.006 5.849-.006 8.774v.433" data-name="Path 31" transform="translate(-48.49 -43.247)"/><path id="Rectangle_59" d="M0 0h5.777v18.706H0z" data-name="Rectangle 59" transform="translate(.494 9.356)"/><path id="Path_32" d="M6.736 3.365a3.4 3.4 0 0 1-3.346 3.41A3.388 3.388 0 0 1 3.353 0a3.373 3.373 0 0 1 3.383 3.365" data-name="Path 32"/></g></svg>