<svg xmlns="http://www.w3.org/2000/svg" width="93.909" height="36.109" viewBox="0 0 93.909 36.109"><g id="Herkey_JFH" data-name="Herkey JFH" transform="translate(-398.66 -360.2)"><path id="Path_1306" fill="#935073" d="M1148.97 442.313a1.3 1.3 0 0 0-1.686.42 7.993 7.993 0 0 1-1.3 1.545 6.493 6.493 0 0 1-1.994 1.148 6.893 6.893 0 0 1-2.422.438 5.758 5.758 0 0 1-4.3-1.809 6.622 6.622 0 0 1-1.8-4.431h13.14a1.812 1.812 0 0 0 1.778-2.157 9.666 9.666 0 0 0-1.686-3.973 8.413 8.413 0 0 0-7.055-3.363 8.217 8.217 0 0 0-6.871 3.286 9.456 9.456 0 0 0 .36 12.109 8.3 8.3 0 0 0 6.617 2.779 9.608 9.608 0 0 0 3.419-.576 8.585 8.585 0 0 0 2.734-1.683 8.9 8.9 0 0 0 1.556-1.908 1.284 1.284 0 0 0 .149-1.018 1.3 1.3 0 0 0-.642-.808Zm-2.422-7.41a6.672 6.672 0 0 1 1.138 2.388h-11.912a6.823 6.823 0 0 1 1.791-3.074 5.954 5.954 0 0 1 4.1-1.537 6.521 6.521 0 0 1 2.773.616 5.8 5.8 0 0 1 2.112 1.608Z" data-name="Path 1306" transform="translate(-672.694 -64.081)"/><path id="Path_1307" fill="#935073" d="M620.57 442.383a1.3 1.3 0 0 0-1.686.42 8 8 0 0 1-1.3 1.545 6.5 6.5 0 0 1-1.994 1.148 6.893 6.893 0 0 1-2.422.438 5.759 5.759 0 0 1-4.3-1.809 6.623 6.623 0 0 1-1.8-4.431h13.14a1.812 1.812 0 0 0 1.778-2.157 9.666 9.666 0 0 0-1.686-3.973 8.413 8.413 0 0 0-7.055-3.364 8.217 8.217 0 0 0-6.871 3.287 9.456 9.456 0 0 0 .361 12.109 8.3 8.3 0 0 0 6.617 2.779 9.607 9.607 0 0 0 3.419-.576 8.582 8.582 0 0 0 2.734-1.683 8.888 8.888 0 0 0 1.556-1.908 1.284 1.284 0 0 0 .149-1.018 1.3 1.3 0 0 0-.642-.808Zm-2.422-7.41a6.671 6.671 0 0 1 1.138 2.388h-11.912a6.824 6.824 0 0 1 1.791-3.074 5.954 5.954 0 0 1 4.1-1.537 6.522 6.522 0 0 1 2.773.616 5.8 5.8 0 0 1 2.112 1.608Z" data-name="Path 1307" transform="translate(-188.494 -64.145)"/><path id="Path_1308" fill="#935073" d="M413.127 383.189V374.7a13.479 13.479 0 0 0-.679-4.96 5.677 5.677 0 0 0-2.131-2.55 5.943 5.943 0 0 0-3.329-.951 6.824 6.824 0 0 0-3.369.848 8.708 8.708 0 0 0-2.532 2.171v-7.663a1.213 1.213 0 0 0-1.213-1.213 1.213 1.213 0 0 0-1.213 1.213V383.2a1.212 1.212 0 0 0 2.424 0v-6.109a22.7 22.7 0 0 1 .276-4.382 5.693 5.693 0 0 1 1.921-3.014 5.03 5.03 0 0 1 3.291-1.212 3.648 3.648 0 0 1 3.925 3.1 18.9 18.9 0 0 1 .232 3.717v7.9a1.2 1.2 0 0 0 2.4-.005v-.008Z" data-name="Path 1308" transform="translate(0 -.165)"/><path id="Path_1309" fill="#935073" d="M853.924 430.025a5.225 5.225 0 0 0-3.511.977 6.151 6.151 0 0 0-2.179 4.074v11.9a1.264 1.264 0 0 0 2.528 0v-11.723a3.531 3.531 0 0 1 1.183-2.237 5.631 5.631 0 0 1 2.029-.469 1.313 1.313 0 0 0 1.26-1.259 1.279 1.279 0 0 0-1.307-1.265Z" data-name="Path 1309" transform="translate(-411.964 -63.976)"/><path id="Path_1310" fill="#935073" d="m977.612 382.081-6.755-9.351 4.752-4.169a1.2 1.2 0 0 0-1.6-1.794l-6.936 6.047v-11.4a1.213 1.213 0 0 0-2.426 0v21.608a1.214 1.214 0 0 0 2.427 0v-6.975l1.751-1.478 6.595 9.118a1.357 1.357 0 0 0 2.19-1.6Z" data-name="Path 1310" transform="translate(-518.646)"/><path id="Path_1311" fill="#87c05a" d="M1350.08 430.726a1.276 1.276 0 0 0-1.789-.576 1.41 1.41 0 0 0-.554 1.915l5.488 10.044-5.568 10.168a1.263 1.263 0 0 0 .545 1.771 1.408 1.408 0 0 0 1.892-.567l6.226-11.37-6.242-11.386Z" data-name="Path 1311" transform="translate(-869.466 -63.943)"/><path id="Path_1312" fill="#935073" d="M1449.863 430.085a1.466 1.466 0 0 0-1.854.815s-3.548 6.463-3.779 6.89l1.545 2.832 4.782-8.738a1.331 1.331 0 0 0-.694-1.8Z" data-name="Path 1312" transform="translate(-958.11 -63.944)"/><g id="Group_11305" data-name="Group 11305" transform="translate(398.66 387.133)"><g id="Group_11303" data-name="Group 11303" transform="translate(37.446)"><path id="Path_1313" fill="#99ca3c" d="m1177.307 704.838.15.563.611-.163 1.7-.453.551-.146.017-.005-.114-.428v-.013a2.3 2.3 0 0 0-.422-.734 2.374 2.374 0 0 0-.626-.519 2.161 2.161 0 0 0-.76-.261 2.013 2.013 0 0 0-.82.049 2.046 2.046 0 0 0-.777.394 2.215 2.215 0 0 0-.808 1.48 2.469 2.469 0 0 0 .457 1.717 2.21 2.21 0 0 0 1.437.883 2.067 2.067 0 0 0 .87-.043 2.106 2.106 0 0 0 .677-.317 1.966 1.966 0 0 0 .47-.468l.422.3-.018-.688-.018-.687-.653.212-.654.212.446.316a1.565 1.565 0 0 1-.345.339 1.413 1.413 0 0 1-.474.228 1.485 1.485 0 0 1-.622.035 1.65 1.65 0 0 1-.58-.207 1.76 1.76 0 0 1-.474-.416 1.971 1.971 0 0 1-.322-.67 1.836 1.836 0 0 1-.054-.3 1.661 1.661 0 0 1-.006-.171 1.624 1.624 0 0 1 1.165-1.609 1.6 1.6 0 0 1 1.633.559l.006.007a1.612 1.612 0 0 1 .255.4h-.005l-1.7.452-.613.156Z" data-name="Path 1313" transform="translate(-1148.418 -700.94)"/><g id="Group_11302" data-name="Group 11302"><path id="Path_1314" d="M879.022 702.976a2.057 2.057 0 0 1 .857.179 2.2 2.2 0 0 1 .7.494 2.355 2.355 0 0 1 .64 1.629 2.3 2.3 0 0 1-1.335 2.111 2.02 2.02 0 0 1-.857.183 1.994 1.994 0 0 1-1.6-.725 2.175 2.175 0 0 1-.4-.742 2.805 2.805 0 0 1-.132-.849 2.757 2.757 0 0 1 .132-.844 2.179 2.179 0 0 1 .4-.738 1.954 1.954 0 0 1 .669-.516 2.051 2.051 0 0 1 .93-.183Zm0 4.026a1.569 1.569 0 0 0 .64-.132 1.543 1.543 0 0 0 .516-.366 1.735 1.735 0 0 0 .341-.55 1.838 1.838 0 0 0 .123-.674 1.8 1.8 0 0 0-.123-.669 1.753 1.753 0 0 0-.341-.546 1.615 1.615 0 0 0-.516-.371 1.531 1.531 0 0 0-.64-.136 1.453 1.453 0 0 0-.627.136 1.626 1.626 0 0 0-.512.371 1.755 1.755 0 0 0-.341.546 1.789 1.789 0 0 0-.124.669 1.827 1.827 0 0 0 .124.674 1.73 1.73 0 0 0 .341.55 1.562 1.562 0 0 0 .512.366 1.507 1.507 0 0 0 .627.13Z" data-name="Path 1314" transform="translate(-874.333 -701.236)"/><path id="Path_1315" d="M982.542 705.189a1.287 1.287 0 0 1 .218.162 1.554 1.554 0 0 1 .23.264 1.237 1.237 0 0 1 .171.362 1.2 1.2 0 0 1 .026.392 1.107 1.107 0 0 1-.213.529 1.456 1.456 0 0 1-.166.192 1.342 1.342 0 0 1-.256.2 1.762 1.762 0 0 1-.337.153 1.259 1.259 0 0 1-.409.064 2.424 2.424 0 0 1-.243-.013 1.856 1.856 0 0 1-.26-.048 1.7 1.7 0 0 1-.546-.285 1.605 1.605 0 0 1-.337-.366 1.265 1.265 0 0 1-.171-.376 1.309 1.309 0 0 1-.047-.311v-.094h.58v.094c0 .006 0 .04.013.1a.706.706 0 0 0 .077.217.863.863 0 0 0 .2.248 1.052 1.052 0 0 0 .4.2.9.9 0 0 0 .439.039 1.183 1.183 0 0 0 .32-.106.752.752 0 0 0 .248-.213 1.119 1.119 0 0 0 .115-.252.385.385 0 0 0 0-.218.545.545 0 0 0-.085-.187.992.992 0 0 0-.128-.149 1.227 1.227 0 0 0-.136-.111 1.056 1.056 0 0 0-.1-.064l-.768-.4a1.913 1.913 0 0 1-.5-.341 1.679 1.679 0 0 1-.273-.341.985.985 0 0 1-.12-.282.9.9 0 0 1-.026-.171 1.024 1.024 0 0 1 .068-.427 1.28 1.28 0 0 1 .187-.324 1.075 1.075 0 0 1 .238-.222 1.405 1.405 0 0 1 .23-.128 1.254 1.254 0 0 1 .7-.1 1.789 1.789 0 0 1 .555.183 1.53 1.53 0 0 1 .371.269 1.488 1.488 0 0 0 .154.149l-.453.35a1.682 1.682 0 0 0-.333-.256 1.106 1.106 0 0 0-.354-.12.744.744 0 0 0-.431.069h-.008l-.073.039a.628.628 0 0 0-.12.09.518.518 0 0 0-.111.162.527.527 0 0 0-.038.248v.008a.352.352 0 0 0 .021.077.662.662 0 0 0 .085.15 1.267 1.267 0 0 0 .183.2 1.517 1.517 0 0 0 .324.209l.76.427a.717.717 0 0 1 .132.064Z" data-name="Path 1315" transform="translate(-969.001 -701.133)"/><path id="Path_1316" d="M1020.155 682.41a1.109 1.109 0 0 1 .315.87h-.221a.9.9 0 0 0-.246-.7.611.611 0 0 0-.2-.11 1.378 1.378 0 0 0-.195-.051.854.854 0 0 0-.213-.008h-.064a.57.57 0 0 0-.119.017.975.975 0 0 0-.157.055.552.552 0 0 0-.161.115.717.717 0 0 0-.161.256.955.955 0 0 0-.059.35l-.008 1.331.085-.085.068-.068a.98.98 0 0 1 .274-.2 1.2 1.2 0 0 1 .269-.094 1.536 1.536 0 0 1 .209-.03h.4v.213h-.324a.873.873 0 0 0-.239.034 1.189 1.189 0 0 0-.218.08.81.81 0 0 0-.218.158 1.1 1.1 0 0 0-.218.35 1.264 1.264 0 0 0-.081.469v2.883h.494v.23h-1.2v-.23h.478V683.2a1.312 1.312 0 0 1 .068-.444.973.973 0 0 1 .2-.333.933.933 0 0 1 .2-.145.914.914 0 0 1 .2-.073 1.1 1.1 0 0 1 .157-.026h.201a1.288 1.288 0 0 1 .2.018 1.034 1.034 0 0 1 .234.069 1.017 1.017 0 0 1 .243.145Z" data-name="Path 1316" transform="translate(-1003.612 -682.18)"/><path id="Path_1317" d="M1041.478 704.31a1.983 1.983 0 0 1 .823.175 2.119 2.119 0 0 1 .678.482 2.339 2.339 0 0 1 .461.721 2.291 2.291 0 0 1 .171.883 2.216 2.216 0 0 1-.171.87 2.359 2.359 0 0 1-.461.717 2.109 2.109 0 0 1-.678.482 1.969 1.969 0 0 1-.823.175 2.035 2.035 0 0 1-.836-.175 2.151 2.151 0 0 1-.687-.482 2.3 2.3 0 0 1-.465-.717 2.239 2.239 0 0 1-.171-.87 2.313 2.313 0 0 1 .636-1.6 2.144 2.144 0 0 1 .687-.482 2.036 2.036 0 0 1 .836-.179Zm0 4.274a1.761 1.761 0 0 0 .74-.158 1.948 1.948 0 0 0 .606-.431 2.014 2.014 0 0 0 .411-.64 2.059 2.059 0 0 0 .15-.785 2.089 2.089 0 0 0-.15-.789 2.037 2.037 0 0 0-.411-.648 1.91 1.91 0 0 0-.606-.435 1.761 1.761 0 0 0-.74-.157 1.812 1.812 0 0 0-.748.157 1.983 1.983 0 0 0-.612.435 2.018 2.018 0 0 0-.414.648 2.093 2.093 0 0 0-.15.789 2.059 2.059 0 0 0 .15.785 1.981 1.981 0 0 0 .414.64 2.011 2.011 0 0 0 .612.431 1.779 1.779 0 0 0 .744.158Z" data-name="Path 1317" transform="translate(-1023.176 -702.459)"/><path id="Path_1318" d="M1094.223 704.6v.23h-.358c-.012 0-.085.01-.222.03a1.147 1.147 0 0 0-.443.183 1.428 1.428 0 0 0-.436.482 1.839 1.839 0 0 0-.2.934v2.345h.494v.213h-1.2v-.213h.478v-3.5a.43.43 0 0 0-.017-.12.594.594 0 0 0-.11-.213.522.522 0 0 0-.41-.146v-.23a.757.757 0 0 1 .582.222.47.47 0 0 1 .115.166 1.55 1.55 0 0 1 .054.158.816.816 0 0 1 .017.162v.094a1.2 1.2 0 0 1 .282-.35 1.288 1.288 0 0 1 .333-.26 1.743 1.743 0 0 1 .32-.132 1.368 1.368 0 0 1 .248-.051c.065-.006.1-.008.115-.008Z" data-name="Path 1318" transform="translate(-1071.266 -702.725)"/><path id="Path_1319" d="m1230.119 703.372-.115.008a1.616 1.616 0 0 0-.269.051 1.7 1.7 0 0 0-.35.141 1.518 1.518 0 0 0-.366.277l-.017.017a.682.682 0 0 0-.153-.23 1.018 1.018 0 0 0-.264-.184.842.842 0 0 0-.374-.08h-.341v.581h.338q.3 0 .3.263v3.084h-.264v.589h1.126v-.589h-.3v-2.01a1.6 1.6 0 0 1 .15-.76 1.125 1.125 0 0 1 .337-.4.935.935 0 0 1 .354-.158 1.648 1.648 0 0 1 .209-.03h.341v-.571h-.341Z" data-name="Path 1319" transform="translate(-1195.954 -701.597)"/><path id="Path_1320" d="M1123.652 688.07h-.464q-.3 0-.3-.315V686.2a2.01 2.01 0 0 0-.6-1.587 1.608 1.608 0 0 0-.427-.286 2.256 2.256 0 0 0-.414-.141 1.573 1.573 0 0 0-.333-.043h-.175c-.023 0-.069 0-.141.008a1.544 1.544 0 0 0-.252.047 1.623 1.623 0 0 0-.315.124 1.38 1.38 0 0 0-.325.23v-1.42a.643.643 0 0 0-.03-.149 1.064 1.064 0 0 0-.073-.179.981.981 0 0 0-.124-.187.954.954 0 0 0-.239-.158.965.965 0 0 0-.427-.081h-.355v.572h.385c.19.008.294.1.311.263v4.853h-.29v.589h1.1v-.589h-.256v-2.013a1.569 1.569 0 0 1 .15-.755 1.124 1.124 0 0 1 .337-.4.914.914 0 0 1 .358-.157 1.771 1.771 0 0 1 .213-.03h.009a1.252 1.252 0 0 1 .324.025 1.421 1.421 0 0 1 .3.094 1.144 1.144 0 0 1 .3.2 1.481 1.481 0 0 1 .409 1.169v1.552a.9.9 0 0 0 .089.418 1.087 1.087 0 0 0 .175.256.658.658 0 0 0 .346.2 1.717 1.717 0 0 0 .234.03h.49v-.587Z" data-name="Path 1320" transform="translate(-1095.879 -682.363)"/><path id="Path_1321" d="M930.874 685.523a2.272 2.272 0 0 0-.443-.729 2.089 2.089 0 0 0-.665-.486 1.93 1.93 0 0 0-.827-.179h-.145a1.768 1.768 0 0 0-.286.038 2.653 2.653 0 0 0-.358.1 1.686 1.686 0 0 0-.38.2v-1.246a1.7 1.7 0 0 0-.029-.248.678.678 0 0 0-.192-.341 1.072 1.072 0 0 0-.239-.171.787.787 0 0 0-.345-.084h-.335v.573h.31c.183.011.276.094.276.253v4.538q0 .322-.263.324h-.324v.59h.335a2.028 2.028 0 0 0 .218-.035.756.756 0 0 0 .35-.2.353.353 0 0 0 .081-.089l.038-.081a1.369 1.369 0 0 0 .55.337 1.842 1.842 0 0 0 .524.09h.06a2.142 2.142 0 0 0 .87-.179 2.369 2.369 0 0 0 .717-.482 2.254 2.254 0 0 0 .486-.713 2.143 2.143 0 0 0 .179-.87 2.544 2.544 0 0 0-.162-.917Zm-.55 1.569a1.706 1.706 0 0 1-.359.529 1.67 1.67 0 0 1-.533.358 1.614 1.614 0 0 1-.648.132h-.017l-.146-.008a.962.962 0 0 1-.853-.734v-1.715a.944.944 0 0 1 .064-.366.812.812 0 0 1 .175-.264.94.94 0 0 1 .282-.183 1.442 1.442 0 0 1 .3-.089 1.289 1.289 0 0 1 .333-.026h.017a1.419 1.419 0 0 1 .6.128 1.472 1.472 0 0 1 .483.358 1.676 1.676 0 0 1 .32.546 1.971 1.971 0 0 1 .115.682 1.589 1.589 0 0 1-.132.653Z" data-name="Path 1321" transform="translate(-919.912 -682.363)"/><path id="Path_1322" d="m1014.617 782.965-.037-.815" data-name="Path 1322" transform="translate(-1000.505 -773.788)"/><path id="Path_1323" d="M847.961 704.869v.008a1.918 1.918 0 0 1-.045.359 2.155 2.155 0 0 1-.115.334 1.092 1.092 0 0 1-.235.338 1.692 1.692 0 0 1-1.246.412v.56a2.117 2.117 0 0 0 1.641-.611 1.689 1.689 0 0 0 .322-.441 2.383 2.383 0 0 0 .169-.438 1.789 1.789 0 0 0 .062-.346c.006-.1.008-.156.008-.177v-3.181a1.02 1.02 0 0 0-.025-.154.925.925 0 0 0-.069-.187.648.648 0 0 0-.132-.183 1.172 1.172 0 0 0-.238-.179.8.8 0 0 0-.395-.085h-.725v.581h.714a.325.325 0 0 1 .236.076.237.237 0 0 1 .077.128.307.307 0 0 1 .008.076v3.108Z" data-name="Path 1323" transform="translate(-846.32 -699.334)"/></g></g><g id="Group_11304" data-name="Group 11304" transform="translate(0 .151)"><path id="Path_1324" d="M398.7 689.545h.71v-3.338h-.752v-.478h.752v-.222c0-1.358.935-1.528 1.37-1.528a2.051 2.051 0 0 1 .251.008l.092.017v.5l-.075-.017a1.487 1.487 0 0 0-.209-.008c-.284 0-.861.1-.861 1.016v.231h1.069v.478h-1.067v3.338h.836v.478H398.7v-.478Z" data-name="Path 1324" transform="translate(-398.66 -683.98)"/><path id="Path_1325" d="M436.733 703.67a2.2 2.2 0 0 1 2.222 2.228 2.239 2.239 0 0 1-2.222 2.27 2.212 2.212 0 0 1-2.213-2.27 2.181 2.181 0 0 1 2.213-2.228Zm0 3.977a1.678 1.678 0 0 0 1.637-1.75 1.634 1.634 0 1 0-3.266 0 1.687 1.687 0 0 0 1.629 1.75Z" data-name="Path 1325" transform="translate(-431.52 -702.023)"/><path id="Path_1326" d="M496.04 708.248h.652V705.1c0-.128-.059-.187-.184-.187h-.568v-.478h.794c.359 0 .509.146.509.487v.29a1.84 1.84 0 0 1-.008.231.391.391 0 0 0-.008.094h.017a1.45 1.45 0 0 1 1.328-1.144.911.911 0 0 1 .159.008l.075.017v.572a.184.184 0 0 1-.067-.008.641.641 0 0 0-.151-.008c-.944 0-1.328 1.084-1.328 1.937v1.34h.652v.478h-1.872v-.478Z" data-name="Path 1326" transform="translate(-487.803 -702.683)"/><path id="Path_1327" d="M536.022 707.588h.71v-3.15c0-.128-.059-.187-.184-.187h-.568v-.478h.8c.342 0 .509.162.509.478v.248a1.368 1.368 0 0 1-.017.213l-.017.094h.017a1.819 1.819 0 0 1 1.562-1.135 1.154 1.154 0 0 1 1.278 1.093h.017a1.774 1.774 0 0 1 1.553-1.093c1.01 0 1.387.6 1.387 1.665v2.254h.71v.478H542.5v-2.586c0-.7-.142-1.281-.9-1.281-.852 0-1.412.922-1.412 1.809v1.579h.71v.478h-1.278v-2.586c0-.657-.084-1.281-.885-1.281-.861 0-1.437.93-1.437 1.827v1.562h.71v.478h-1.988v-.476Z" data-name="Path 1327" transform="translate(-524.493 -702.023)"/><path id="Path_1328" d="M638.112 703.661a1.782 1.782 0 0 1 1.762 1.981 1.166 1.166 0 0 1-.008.171l-.017.1h-3.225a1.622 1.622 0 0 0 1.629 1.724 1.946 1.946 0 0 0 1.277-.512l.259.435a2.644 2.644 0 0 1-.417.3 2.208 2.208 0 0 1-1.136.3 2.152 2.152 0 0 1-2.2-2.245 2.075 2.075 0 0 1 2.071-2.253Zm1.169 1.827c-.025-.913-.568-1.34-1.186-1.34a1.452 1.452 0 0 0-1.445 1.34Z" data-name="Path 1328" transform="translate(-616.184 -702.014)"/><path id="Path_1329" d="M690.48 708.248h.652V705.1c0-.128-.059-.187-.184-.187h-.568v-.478h.794c.359 0 .509.146.509.487v.29a1.84 1.84 0 0 1-.008.231.391.391 0 0 0-.008.094h.017a1.449 1.449 0 0 1 1.328-1.144.912.912 0 0 1 .159.008l.075.017v.572a.184.184 0 0 1-.067-.008.642.642 0 0 0-.151-.008c-.944 0-1.328 1.084-1.328 1.937v1.34h.652v.478h-1.872v-.478Z" data-name="Path 1329" transform="translate(-665.978 -702.683)"/><path id="Path_1330" d="M727.074 684.968h-.744v-.478h1.312v4.883c0 .35.1.64.476.64a.83.83 0 0 0 .176-.008.163.163 0 0 1 .059-.008v.5l-.1.017a1.754 1.754 0 0 1-.226.008c-.56 0-.952-.282-.952-1.1v-4.448Z" data-name="Path 1330" transform="translate(-698.921 -684.447)"/><path id="Path_1331" d="M753.859 710.269a.52.52 0 0 0 .159.1.8.8 0 0 0 .4.1.945.945 0 0 0 .8-.682l.234-.572-1.5-3.841h-.552v-.474h1.762v.478h-.61l1.1 2.928a1.129 1.129 0 0 1 .05.213l.017.094h.025a.445.445 0 0 1 .017-.094c.025-.059.042-.136.067-.213l1.1-2.928h-.61v-.478h1.737v.478h-.551l-1.788 4.61a1.391 1.391 0 0 1-1.287 1 1.351 1.351 0 0 1-.576-.128 1.661 1.661 0 0 1-.218-.128l.218-.462Z" data-name="Path 1331" transform="translate(-723.727 -703.15)"/></g></g></g></svg>