<svg xmlns="http://www.w3.org/2000/svg" id="Group_91" width="35.055" height="28.537" data-name="Group 91" viewBox="0 0 35.055 28.537"><defs><clipPath id="clip-path"><path id="Rectangle_58" fill="#fff" d="M0 0h35.055v28.537H0z" data-name="Rectangle 58"/></clipPath></defs><g id="Group_90" clip-path="url(#clip-path)" data-name="Group 90"><path id="Path_30" fill="#fff" d="M0 25.321a14.721 14.721 0 0 0 10.588-2.979 7.293 7.293 0 0 1-6.7-5 8.1 8.1 0 0 0 3.171-.151 7.287 7.287 0 0 1-4.131-2.584 7.1 7.1 0 0 1-1.563-4.556 7.234 7.234 0 0 0 3.127.859C1.335 8.254.6 5.089 2.356 1.287a20.54 20.54 0 0 0 14.815 7.559c-.026-.716-.089-1.4-.069-2.075a7.168 7.168 0 0 1 5.224-6.5 7.086 7.086 0 0 1 6.993 1.812.428.428 0 0 0 .481.13c.718-.227 1.457-.392 2.16-.657S33.33.932 34.052.6a5.509 5.509 0 0 1-1.141 2.143c-.536.612-1.152 1.153-1.722 1.715a14.631 14.631 0 0 0 3.866-1.074 13.864 13.864 0 0 1-3.241 3.449.775.775 0 0 0-.338.743 20.419 20.419 0 0 1-2.094 9.479 20.042 20.042 0 0 1-7.6 8.543 19.549 19.549 0 0 1-7.825 2.746 21.356 21.356 0 0 1-7.329-.272A20.078 20.078 0 0 1 .163 25.44c-.028-.018-.054-.04-.163-.119" data-name="Path 30"/></g></svg>