<svg xmlns="http://www.w3.org/2000/svg" id="Group_288" width="288.574" height="92.389" data-name="Group 288" viewBox="0 0 288.574 92.389"><defs><clipPath id="clip-path"><path id="Rectangle_151" fill="none" d="M0 0h288.574v92.389H0z" data-name="Rectangle 151"/></clipPath></defs><g id="Group_252" clip-path="url(#clip-path)" data-name="Group 252"><path id="Path_174" fill="#935073" d="M783.9 107.385a3.98 3.98 0 0 0-5.18 1.291 24.57 24.57 0 0 1-3.987 4.748 19.993 19.993 0 0 1-6.129 3.528 21.2 21.2 0 0 1-7.442 1.347 17.7 17.7 0 0 1-13.215-5.561 20.351 20.351 0 0 1-5.531-13.615H782.8a5.567 5.567 0 0 0 5.464-6.629 29.684 29.684 0 0 0-5.182-12.21c-5.263-6.969-12.7-10.334-21.678-10.334-8.789 0-15.893 3.4-21.113 10.1a29.062 29.062 0 0 0 1.109 37.21c4.874 5.667 11.716 8.54 20.336 8.54a29.512 29.512 0 0 0 10.505-1.771 26.366 26.366 0 0 0 8.4-5.171 27.287 27.287 0 0 0 4.781-5.864 3.938 3.938 0 0 0 .457-3.127 4.006 4.006 0 0 0-1.972-2.483m-7.441-22.772a20.489 20.489 0 0 1 3.5 7.339h-36.6a20.951 20.951 0 0 1 5.5-9.447 18.3 18.3 0 0 1 12.593-4.724 20.039 20.039 0 0 1 8.522 1.891 17.825 17.825 0 0 1 6.491 4.941" data-name="Path 174" transform="translate(-545.397 -51.969)"/><path id="Path_175" fill="#935073" d="M255.509 107.453a3.98 3.98 0 0 0-5.179 1.291 24.562 24.562 0 0 1-3.987 4.748 19.991 19.991 0 0 1-6.128 3.528 21.2 21.2 0 0 1-7.442 1.347 17.7 17.7 0 0 1-13.215-5.561 20.351 20.351 0 0 1-5.531-13.615H254.4a5.567 5.567 0 0 0 5.464-6.629 29.684 29.684 0 0 0-5.182-12.21c-5.263-6.969-12.7-10.334-21.678-10.334-8.789 0-15.893 3.4-21.113 10.1a29.062 29.062 0 0 0 1.109 37.21c4.874 5.667 11.716 8.54 20.336 8.54a29.514 29.514 0 0 0 10.505-1.771 26.366 26.366 0 0 0 8.4-5.171 27.29 27.29 0 0 0 4.781-5.864 3.938 3.938 0 0 0 .457-3.127 4.006 4.006 0 0 0-1.972-2.483m-7.441-22.772a20.494 20.494 0 0 1 3.5 7.339h-36.6a20.949 20.949 0 0 1 5.5-9.447 18.3 18.3 0 0 1 12.593-4.724 20.038 20.038 0 0 1 8.522 1.891 17.827 17.827 0 0 1 6.491 4.941" data-name="Path 175" transform="translate(-152.823 -52.02)"/><path id="Path_176" fill="#935073" d="M44.455 70.283V44.19c0-6.884-.7-12.012-2.086-15.242a17.45 17.45 0 0 0-6.548-7.834 18.274 18.274 0 0 0-10.231-2.923A21.341 21.341 0 0 0 15.237 20.8a26.744 26.744 0 0 0-7.782 6.671V3.92A3.728 3.728 0 1 0 0 3.92v66.405h.006a3.724 3.724 0 0 0 7.448 0V51.553c0-6.567.286-11.1.848-13.466a17.5 17.5 0 0 1 5.9-9.262A15.448 15.448 0 0 1 24.317 25.1a12.461 12.461 0 0 1 7.916 2.369 12.487 12.487 0 0 1 4.143 7.16c.473 1.893.712 5.736.712 11.423v24.273a3.683 3.683 0 0 0 7.366-.016v-.026" data-name="Path 176" transform="translate(0 -.143)"/><path id="Path_177" fill="#935073" d="M467.065 69.858a16.048 16.048 0 0 0-10.788 3c-5.962 4.477-6.669 12.192-6.7 12.519l-.014 36.57a3.885 3.885 0 0 0 7.769 0V85.926c.115-.849.788-4.761 3.636-6.874 1.531-1.135 6.189-1.435 6.235-1.441 2.132-.267 3.888-1.719 3.872-3.867-.03-3.864-4.018-3.886-4.018-3.886" data-name="Path 177" transform="translate(-334.01 -51.879)"/><path id="Path_178" fill="#935073" d="m605.809 67.243-20.756-28.735 14.6-12.812a3.692 3.692 0 0 0-4.909-5.515l-21.311 18.581V3.728a3.728 3.728 0 0 0-7.456 0v66.399a3.731 3.731 0 0 0 7.462 0V48.691l5.381-4.543 20.266 28.019a4.17 4.17 0 0 0 6.73-4.924" data-name="Path 178" transform="translate(-420.495)"/><path id="Path_179" fill="#87c05a" d="M956.782 72.085a3.921 3.921 0 0 0-5.5-1.768 4.331 4.331 0 0 0-1.7 5.885l16.864 30.865-17.108 31.246a3.881 3.881 0 0 0 1.675 5.442 4.326 4.326 0 0 0 5.814-1.741l19.132-34.939Z" data-name="Path 179" transform="translate(-704.945 -51.853)"/><path id="Path_180" fill="#935073" d="M1062.87 70.112c-2.2-.946-4.606.312-5.7 2.5 0 0-10.9 19.861-11.614 21.172l4.748 8.7L1065 75.641a4.089 4.089 0 0 0-2.133-5.529" data-name="Path 180" transform="translate(-776.806 -51.853)"/></g></svg>