<svg xmlns="http://www.w3.org/2000/svg" id="Group_89" width="41.009" height="28.777" data-name="Group 89" viewBox="0 0 41.009 28.777"><defs><clipPath id="clip-path"><path id="Rectangle_57" fill="#fff" d="M0 0h41.009v28.777H0z" data-name="Rectangle 57"/></clipPath></defs><g id="Group_88" clip-path="url(#clip-path)" data-name="Group 88"><path id="Path_29" fill="#fff" d="M20.425 0c4.208.165 8.418.314 12.625.5a22.022 22.022 0 0 1 2.963.36 5.172 5.172 0 0 1 4.329 4.509 49.162 49.162 0 0 1 .629 10.379c-.08 2.428-.315 4.853-.548 7.273a5.447 5.447 0 0 1-2.47 4.324 6.926 6.926 0 0 1-3.124.9 116.008 116.008 0 0 1-12.749.526c-4.268-.021-8.536-.15-12.8-.288a36.467 36.467 0 0 1-4.157-.425A5.027 5.027 0 0 1 .74 23.727c-.308-1.833-.478-3.695-.61-5.551a59.244 59.244 0 0 1 .091-9 33.591 33.591 0 0 1 .561-4.184A5.16 5.16 0 0 1 5.5.744 111.76 111.76 0 0 1 17.518.133c.967-.016 1.935 0 2.9 0v-.13m-3.969 20.583L27.1 14.452 16.449 8.319Z" data-name="Path 29"/></g></svg>